<mxfile host="app.diagrams.net" modified="2024-04-14T04:29:01.380Z" agent="Mozilla/5.0 (Windows NT 10.0; Win64; x64) AppleWebKit/537.36 (KHTML, like Gecko) Chrome/123.0.0.0 Safari/537.36" version="24.2.2" etag="I9W_FaIduiezlm8qLf5C" type="github">
  <diagram name="Page-1" id="D6qR52etg93wty0bgQ5z">
    <mxGraphModel>
      <root>
        <mxCell id="0" />
        <mxCell id="1" parent="0" />
      </root>
    </mxGraphModel>
  </diagram>
</mxfile>
